<svg id="Layer_1" data-name="Layer 1" xmlns="http://www.w3.org/2000/svg" viewBox="0 0 547.78 299.44"><defs><style>.cls-1{fill:#fff;stroke:#000;stroke-linecap:round;stroke-linejoin:round;stroke-width:9px;}</style></defs><path class="cls-1" d="M670.31,701.26s55.27-283,121.36-281.86c79.4,1.39-24.08,252.75-24.08,252.75s291.27-139.95,394-105.7S797.46,676,797.46,676s35.54-148,83-163.15c38.3-12.26,12,82,12,82S906.92,504,946,496c46.12-9.45,9.89,79,9.89,79s85.24-13.58,55.27-55.32c-24.61-34.28-35-25.24-35-25.24l87.75-23.36s-45.87,99-22.58,81.11,38.76-59.32,38.76-59.32-9.71,54.33,5.36,52.86c12-1.18,26.85-52.83,32.32-73.52a21,21,0,0,1,10.24-13.2c4.43-2.39,62.78-30.95,54.9,10.89-8.19,43.45-24.39,72.76-24.39,72.76s3.07-82-46.52,1.17" transform="translate(-665.81 -406.32)"/><path class="cls-1" d="M879.42,439.3s-57.16,63.26-17.62,58.21C956.2,485.45,1228.36,407,1208,411" transform="translate(-665.81 -406.32)"/></svg>